<svg xmlns="http://www.w3.org/2000/svg" width="28" height="28" viewBox="0 0 28 28"><path d="M3182.556-2590.556A1.47,1.47,0,0,1,3181-2589a1.469,1.469,0,0,1-1.555-1.556v-10.889h-10.889A1.469,1.469,0,0,1,3167-2603a1.47,1.47,0,0,1,1.556-1.556h10.889v-10.889A1.469,1.469,0,0,1,3181-2617a1.469,1.469,0,0,1,1.556,1.555v10.889h10.889A1.469,1.469,0,0,1,3195-2603a1.469,1.469,0,0,1-1.555,1.555H3181a1.469,1.469,0,0,1-1.555-1.555v-12.445a1.469,1.469,0,0,0,1.555,1.556,1.47,1.47,0,0,0,1.556-1.556V-2603a1.469,1.469,0,0,1-1.556,1.555h-12.444a1.469,1.469,0,0,0,1.556-1.555,1.47,1.47,0,0,0-1.556-1.556H3181a1.47,1.47,0,0,1,1.556,1.556Z" transform="translate(-3167 2617)" fill="#0082d8"/></svg>