<svg xmlns="http://www.w3.org/2000/svg" xmlns:xlink="http://www.w3.org/1999/xlink" width="41" height="41" viewBox="0 0 41 41"><defs><linearGradient id="a" x1="0.5" x2="0.5" y2="1" gradientUnits="objectBoundingBox"><stop offset="0" stop-color="#e2e2e2"/><stop offset="1" stop-color="#929292"/></linearGradient></defs><g transform="translate(0.5 0.5)"><path d="M23,3A20,20,0,1,1,3,23,19.989,19.989,0,0,1,23,3Z" transform="translate(-3 -3)" fill="none" stroke="#707070" stroke-width="1"/><path d="M23,3A20,20,0,1,1,3,23,19.989,19.989,0,0,1,23,3Z" transform="translate(-3 -3)" fill="none" stroke="#707070" stroke-width="1"/><path d="M26.672,7.386A19.286,19.286,0,1,1,7.386,26.672,19.275,19.275,0,0,1,26.672,7.386Z" transform="translate(-6.672 -6.672)" fill="none"/><path d="M61.109,89.636A10.334,10.334,0,0,1,57.9,94.7a10.351,10.351,0,0,1-5.862,2.071l-.489-3.284a7.783,7.783,0,0,0,3.559-1.142,9.154,9.154,0,0,0,.837-.857L50.152,72.5h4.816l3.35,14.207L61.877,72.5h4.676L61.11,89.636ZM44.29,71.859a7.805,7.805,0,0,1,3,.5,8.977,8.977,0,0,1,2.582,1.571l-1.954,2.713a7.614,7.614,0,0,0-1.605-.928,4.359,4.359,0,0,0-1.675-.286c-2.373,0-3.559,1.856-3.559,5.64,0,1.928.279,3.284.907,4.069a2.989,2.989,0,0,0,2.652,1.214,4.012,4.012,0,0,0,1.605-.286,14.186,14.186,0,0,0,1.745-.928l1.954,2.856a8.221,8.221,0,0,1-5.513,2A8.481,8.481,0,0,1,40.1,88.922a7.129,7.129,0,0,1-2.792-3.141A11.2,11.2,0,0,1,36.334,81a11.439,11.439,0,0,1,.977-4.783A7.512,7.512,0,0,1,40.1,72.93a8.694,8.694,0,0,1,4.187-1.071Z" transform="translate(-30.908 -61.345)" fill="url(#a)"/></g></svg>