<svg xmlns="http://www.w3.org/2000/svg" xmlns:xlink="http://www.w3.org/1999/xlink" width="40" height="28.77" viewBox="0 0 40 28.77"><defs><linearGradient id="a" x1="0.5" x2="0.5" y2="1" gradientUnits="objectBoundingBox"><stop offset="0" stop-color="#e2e2e2"/><stop offset="1" stop-color="#929292"/></linearGradient></defs><path d="M8.034,28.233a2.167,2.167,0,0,1-2.174-2.067,2.107,2.107,0,0,1,2.175-2.072,2.108,2.108,0,0,1,2.184,2.07,2.168,2.168,0,0,1-2.175,2.067Zm26.69-11.273a6.23,6.23,0,0,0-2.6-4.034l-.525-.417-.423.517a5.585,5.585,0,0,0-1.05,3.826,5.445,5.445,0,0,0,.923,2.59c-.423.217-.947.417-1.35.628a8.818,8.818,0,0,1-2.8.417H.161l-.1.617A11.634,11.634,0,0,0,1,27l.407.725v.1c2.5,4.139,6.951,6,11.8,6,9.325,0,16.972-4.034,20.6-12.723,2.375.1,4.774-.517,5.9-2.794L40,17.8l-.5-.312a6.3,6.3,0,0,0-4.751-.517l-.03,0ZM21.376,15.306H17.329V19.34h4.051V15.3l0,.005Zm0-5.072H17.329v4.034h4.051V10.239l0-.005Zm0-5.174H17.329V9.093h4.051V5.06Zm4.951,10.246H22.3V19.34h4.034V15.3l-.012.005Zm-15,0H7.306V19.34h4.037V15.3l-.017.005Zm5.051,0h-4V19.34H16.4V15.3l-.025.005Zm-10.051,0H2.333V19.34H6.381V15.3l-.05.005Zm10.051-5.072h-4v4.034H16.4V10.239l-.025-.005Zm-5.076,0H7.312v4.034h4.022V10.239l-.027-.005Z" transform="translate(-0.002 -5.06)" fill="url(#a)"/></svg>