<svg xmlns="http://www.w3.org/2000/svg" width="28" height="28" viewBox="0 0 28 28"><path d="M12.833,28V25.667H8.167V28ZM22.167,2.333h3.5v3.5H28V0H22.167ZM0,19.833H2.333V15.167H0Zm0-7H2.333V8.167H0Zm2.333-7v-3.5h3.5V0H0V5.833ZM28,8.167H25.667v4.667H28Zm0,7H25.667v4.667H28Zm-2.333,7v3.5h-3.5V28H28V22.167Zm-19.833,3.5h-3.5v-3.5H0V28H5.833Zm14,2.333V25.667H15.167V28Zm-7-25.667V0H8.167V2.333Zm7,0V0H15.167V2.333Zm0,9.333v8.167H11.667V11.667Zm2.333-2.333H9.333V22.167H22.167Zm-3.5-3.5V8.167H8.167v10.5H5.833V5.833Z" fill="#37ae6f"/></svg>