<svg xmlns="http://www.w3.org/2000/svg" xmlns:xlink="http://www.w3.org/1999/xlink" width="40" height="40" viewBox="0 0 40 40"><defs><linearGradient id="a" x1="0.5" x2="0.5" y2="1" gradientUnits="objectBoundingBox"><stop offset="0" stop-color="#e2e2e2"/><stop offset="1" stop-color="#929292"/></linearGradient></defs><path d="M20.011.01a19.892,19.892,0,0,0-20,20,19.9,19.9,0,0,0,20,20,19.894,19.894,0,0,0,20-20A19.891,19.891,0,0,0,20.011.01ZM4.358,20.184l15.48,15.479A15.514,15.514,0,0,1,4.358,20.184ZM23.49,35.315,4.706,16.532a15.719,15.719,0,0,1,28-5.738l-2.26,1.911A12.769,12.769,0,0,0,19.838,7.141a12.6,12.6,0,0,0-12,8.521l16.349,16.35a12.387,12.387,0,0,0,8-9.045H25.4V20.011H35.665a15.678,15.678,0,0,1-12.175,15.3Z" transform="translate(-0.01 -0.01)" fill="url(#a)"/></svg>