<svg xmlns="http://www.w3.org/2000/svg" xmlns:xlink="http://www.w3.org/1999/xlink" width="36.219" height="40" viewBox="0 0 36.219 40"><defs><linearGradient id="a" x1="0.5" x2="0.5" y2="1" gradientUnits="objectBoundingBox"><stop offset="0" stop-color="#e2e2e2"/><stop offset="1" stop-color="#929292"/></linearGradient></defs><path d="M39.51,25.217a3.724,3.724,0,0,0-3.725-3.724,3.764,3.764,0,0,0-.391.021L40.51,6.427H18.769L23.878,21.5c-.075,0-.15-.008-.226-.008a3.725,3.725,0,0,0-1.131,7.273,16.265,16.265,0,0,1-2.929,3.685,14.914,14.914,0,0,1-5.219,3.24,4.748,4.748,0,0,1-2.379-6.044c.109-.257.221-.518.328-.778a3.725,3.725,0,1,0-2.987-.577c-.922,2.1-2.277,4.3-2.7,6.841-.506,3.051,0,6.29,2.637,8.118,6.146,4.259,12.817-2.64,19.851-4.375,2.549-.629,5.347-.527,7.593-1.828a6.359,6.359,0,0,0,3.114-4.413A6.628,6.628,0,0,0,38.644,27.6a3.709,3.709,0,0,0,.866-2.387Zm-12.134.013s0-.009,0-.013a3.722,3.722,0,0,0-1.8-3.186l4.066-8.221,4.073,8.308a3.72,3.72,0,0,0-1.659,3.1c0,.027,0,.054,0,.081l-4.687-.068Z" transform="translate(-5.552 -5.523)" fill="url(#a)"/><path d="M34.86,19.694a4.639,4.639,0,0,0-3.776-4.552L36.219,0H11.95l5.142,15.173a4.63,4.63,0,0,0-1.436,8.455,15.521,15.521,0,0,1-2.24,2.637,14.039,14.039,0,0,1-4.514,2.9,3.794,3.794,0,0,1-1.62-4.686l.057-.133.106-.25a4.636,4.636,0,1,0-4.771-1.077c-.155.33-.317.665-.484,1.008a19.994,19.994,0,0,0-2,5.433c-.664,4,.407,7.2,3.015,9.012A8.216,8.216,0,0,0,8.015,40c3.046,0,6.127-1.53,9.14-3.027a33.817,33.817,0,0,1,6.631-2.739c.825-.2,1.674-.326,2.572-.455a14.254,14.254,0,0,0,5.257-1.468,7.272,7.272,0,0,0,3.553-5.043,7.507,7.507,0,0,0-.987-5.162,4.6,4.6,0,0,0,.679-2.411Zm-1.819,0a2.814,2.814,0,1,1-2.814-2.814,2.817,2.817,0,0,1,2.814,2.814Zm.64-17.876L29.148,15.19a4.576,4.576,0,0,0-.574.178L24.1,6.232,19.6,15.314a4.575,4.575,0,0,0-.6-.163L14.487,1.819ZM18.1,16.88a2.814,2.814,0,1,1-2.814,2.814A2.817,2.817,0,0,1,18.1,16.88Zm-12.175.027A2.814,2.814,0,1,1,3.11,19.721a2.817,2.817,0,0,1,2.814-2.814ZM33.377,26.956a5.457,5.457,0,0,1-2.673,3.78,12.712,12.712,0,0,1-4.6,1.242c-.9.13-1.836.265-2.748.49a35.124,35.124,0,0,0-7,2.876c-4.52,2.245-8.423,4.183-12.1,1.633-2.7-1.868-2.571-5.325-2.257-7.22a18.314,18.314,0,0,1,1.839-4.935c.132-.271.26-.535.385-.8a4.592,4.592,0,0,0,1.2.3,5.664,5.664,0,0,0,3,6.65l.35.18.371-.132a15.756,15.756,0,0,0,5.536-3.434,17.255,17.255,0,0,0,2.74-3.313,4.63,4.63,0,0,0,3.772-8.039l2.911-5.887,2.941,6a4.629,4.629,0,0,0,5.84,7.149,5.652,5.652,0,0,1,.507,3.459Z" fill="none"/></svg>