<svg xmlns="http://www.w3.org/2000/svg" xmlns:xlink="http://www.w3.org/1999/xlink" width="40" height="40" viewBox="0 0 40 40"><defs><linearGradient id="a" x1="0.5" x2="0.5" y2="1" gradientUnits="objectBoundingBox"><stop offset="0" stop-color="#e2e2e2"/><stop offset="1" stop-color="#929292"/></linearGradient></defs><path d="M23.731.3l1.493.333,1.211.433.978.5.746.533.564.567.415.567.265.55.166.5.066.433.033.333-.017.217v8.9l-.083,1.05-.216.917L29,16.9l-.431.633-.5.517-.547.417-.58.317-.58.233-.547.167-.5.117-.431.067-.348.033h-9.9l-1.144.083-.978.233-.829.367-.68.45-.547.533-.448.583-.332.6-.249.617-.166.583-.116.533-.066.45-.033.35v5.1h-3.7l-.348-.05-.464-.117-.531-.2-.58-.3-.6-.433-.6-.6-.58-.767-.531-.983L.663,25.217.315,23.75.083,22,0,19.95l.1-2.033.265-1.733.4-1.45.531-1.183.6-.95.663-.733.7-.55.7-.4.663-.267.6-.167.531-.083.4-.017H6.4l.1.017H20.033V9.017H10.348l-.017-4.583L10.3,3.817l.083-.567.182-.517.282-.467.415-.433.514-.383.63-.333.73-.3.846-.25.962-.2L16,.2,17.181.1,18.458.033,19.851,0l2.106.083L23.731.3ZM13.284,3.6l-.381.55-.133.683.133.683.381.567.547.367.68.15.68-.15.547-.367.381-.567.133-.683-.133-.683-.381-.55-.547-.367-.68-.15-.68.15-.547.367Zm21.708,6.583.464.1.531.2.58.3.6.45.6.583.58.783.531.983.464,1.217.348,1.467L39.917,18,40,20.05l-.1,2.05-.265,1.733-.4,1.433-.531,1.183-.6.95-.663.75-.7.55-.7.4-.663.267-.6.15-.531.083-.4.033-.265-.017H19.967v1.367h9.685l.017,4.6.033.6-.083.567-.182.517-.282.483-.415.417-.514.4-.63.333-.73.283-.846.25-.962.217L24,39.8l-1.177.117-1.277.067L20.149,40l-2.106-.067L16.269,39.7l-1.493-.333-1.211-.417-.978-.5-.746-.55-.564-.567-.415-.567-.265-.55-.166-.5-.066-.417-.033-.333.017-.217v-8.9l.083-1.067.216-.9L11,23.117l.431-.633.5-.533.547-.4.58-.333.58-.233.547-.167.5-.1.431-.067.348-.033.216-.017h9.685l1.144-.083.978-.233.829-.35.68-.467.547-.533.448-.583.332-.6.249-.6.166-.583.116-.533.066-.467.033-.35v-5.1h3.466l.232.017.348.05Zm-10.73,23.75-.381.55-.133.683.133.683.381.55.547.383.68.133.68-.133.547-.383.381-.55.133-.683-.133-.683-.381-.55-.547-.383-.68-.133-.68.133Z" transform="translate(0 0)" fill="url(#a)"/></svg>