<svg xmlns="http://www.w3.org/2000/svg" xmlns:xlink="http://www.w3.org/1999/xlink" width="40" height="35.788" viewBox="0 0 40 35.788"><defs><linearGradient id="a" x1="0.5" x2="0.5" y2="1" gradientUnits="objectBoundingBox"><stop offset="0" stop-color="#e2e2e2"/><stop offset="1" stop-color="#929292"/></linearGradient></defs><path d="M31.643,20.808a17.748,17.748,0,0,0,.368-7.328,4.722,4.722,0,0,0-1.4-2.512A3.992,3.992,0,0,0,27.9,10a9.2,9.2,0,0,0-5.467,2.274,24.894,24.894,0,0,0-2.457,2.2,1.936,1.936,0,0,0-.232-.244,17.678,17.678,0,0,0-6.156-3.983,4.731,4.731,0,0,0-2.876-.038,3.985,3.985,0,0,0-2.189,1.863,9.2,9.2,0,0,0-.771,5.874,24.92,24.92,0,0,0,.674,3.227,1.948,1.948,0,0,0-.358.08,17.679,17.679,0,0,0-6.52,3.337A4.7,4.7,0,0,0,.082,27.056,3.988,3.988,0,0,0,.6,29.884a9.183,9.183,0,0,0,4.695,3.6A24.347,24.347,0,0,0,8.368,34.5a1.838,1.838,0,0,0-.12.375A17.719,17.719,0,0,0,7.877,42.2a4.7,4.7,0,0,0,1.4,2.512,3.978,3.978,0,0,0,2.707.968,9.184,9.184,0,0,0,5.465-2.274,24.852,24.852,0,0,0,2.484-2.225,1.832,1.832,0,0,0,.326.379,17.675,17.675,0,0,0,6.16,3.985,4.731,4.731,0,0,0,2.876.038,3.985,3.985,0,0,0,2.189-1.863,9.2,9.2,0,0,0,.771-5.874,25.158,25.158,0,0,0-.707-3.354,1.879,1.879,0,0,0,.394-.084,17.7,17.7,0,0,0,6.518-3.337A4.7,4.7,0,0,0,39.933,28.6a3.988,3.988,0,0,0-.518-2.827,9.183,9.183,0,0,0-4.695-3.6,24.962,24.962,0,0,0-3.175-1.044,1.833,1.833,0,0,0,.1-.326Z" transform="translate(-0.007 -10)" fill="none"/><path d="M64.085,64h5.847a1,1,0,0,1,.869.5l2.931,5.106a1,1,0,0,1,0,1L70.8,75.712a1,1,0,0,1-.867.5H64.085a1,1,0,0,1-.869-.5l-2.929-5.106a1,1,0,0,1,0-1L63.216,64.5A1,1,0,0,1,64.085,64Zm5.124,1.257a1,1,0,0,1,.869.5l2.2,3.848a1,1,0,0,1,0,1l-2.2,3.848a1,1,0,0,1-.869.5h-4.4a1,1,0,0,1-.869-.5l-2.207-3.848a1,1,0,0,1,0-1l2.207-3.846a1,1,0,0,1,.869-.5h4.4Zm-.781,1.374H65.588a1,1,0,0,0-.867.5L63.3,69.609a1,1,0,0,0,0,1l1.422,2.475a1,1,0,0,0,.867.5h2.835a1,1,0,0,0,.869-.5l1.422-2.475a1,1,0,0,0,0-1l-1.422-2.475a1,1,0,0,0-.869-.5Zm-.755,1.316a1,1,0,0,1,.867.5l.667,1.161a1,1,0,0,1,0,1l-.667,1.161a1,1,0,0,1-.867.5H66.345a1,1,0,0,1-.869-.5l-.667-1.161a1,1,0,0,1,0-1l.667-1.161a1,1,0,0,1,.869-.5Zm-.665,1.3a.865.865,0,1,0,.865.865A.865.865,0,0,0,67.008,69.242ZM60,70.107h1.556" transform="translate(-46.987 -52.284)" fill-rule="evenodd" fill="url(#a)"/><path d="M16.615,35.886a.552.552,0,0,1,.417-.051.543.543,0,0,1,.33.257l.094.166q1.145,2,2.391,3.8,1.544,2.225,3.3,4.3a.545.545,0,0,1-.06.762l-.121.1q-6.06,5.217-7.877,2.084-1.778-3.064,1.286-11.14A.549.549,0,0,1,16.615,35.886Zm17.21,4.093a.542.542,0,0,1,.629.426l.03.158q1.5,7.72-2.109,7.722-3.526,0-8.98-6.586a.532.532,0,0,1-.07-.572.547.547,0,0,1,.5-.306h.191q2.3.015,4.466-.156,2.689-.216,5.348-.685Zm1.382-10.932a.569.569,0,0,1,.711-.329l.161.053Q43.863,31.385,42,34.516q-1.829,3.061-10.635,4.458a.583.583,0,0,1-.378-.067.542.542,0,0,1-.26-.332.534.534,0,0,1,.059-.415l.1-.166Q32.088,36,33.056,34.037q1.2-2.442,2.149-4.988ZM18,27.509a.583.583,0,0,1,.378.067.542.542,0,0,1,.26.332.534.534,0,0,1-.059.415l-.1.166Q17.27,30.478,16.3,32.446q-1.2,2.442-2.149,4.988a.569.569,0,0,1-.713.331l-.161-.053Q5.5,35.1,7.363,31.967,9.192,28.906,18,27.509Zm8.4-6.249q6.06-5.217,7.877-2.084,1.778,3.064-1.286,11.14a.548.548,0,0,1-.99.075l-.094-.166q-1.114-1.949-2.391-3.8-1.544-2.225-3.3-4.3a.545.545,0,0,1,.06-.762ZM17.184,18q3.529,0,8.98,6.586a.532.532,0,0,1,.07.572.547.547,0,0,1-.494.307h-.191q-2.3-.015-4.466.156-2.689.216-5.348.685a.542.542,0,0,1-.629-.426l-.03-.158Q13.576,18,17.184,18Z" transform="translate(-4.682 -15.347)" fill-rule="evenodd" fill="url(#a)"/></svg>