<svg xmlns="http://www.w3.org/2000/svg" xmlns:xlink="http://www.w3.org/1999/xlink" width="36" height="40" viewBox="0 0 36 40"><defs><linearGradient id="a" x1="0.5" x2="0.5" y2="1" gradientUnits="objectBoundingBox"><stop offset="0" stop-color="#e2e2e2"/><stop offset="1" stop-color="#929292"/></linearGradient></defs><path d="M26,14.778V10.222c-2.327-.8-2.953-.835-3.279-1.593s.09-1.218,1.147-3.357L20.517,2.05c-2.195,1-2.7,1.421-3.493,1.1S16.193,2.227,15.37,0h-4.74C9.8,2.233,9.764,2.839,8.974,3.153c-.815.326-1.3-.1-3.492-1.1L2.132,5.272C3.19,7.412,3.607,7.869,3.279,8.63s-.954.8-3.279,1.592v4.557c2.317.792,2.952.833,3.279,1.592s-.088,1.216-1.147,3.357L5.483,22.95c2.166-.99,2.676-1.43,3.492-1.1.789.315.828.917,1.656,3.153h4.739c.821-2.22.866-2.836,1.665-3.157s1.285.1,3.483,1.106l3.351-3.222c-1.056-2.135-1.475-2.6-1.147-3.357S23.674,15.575,26,14.778Zm-5.281.8c-.625,1.452-.074,2.56.529,3.727L20.073,20.43c-1.184-.566-2.341-1.121-3.871-.51-1.512.605-1.939,1.764-2.37,3H12.17c-.431-1.234-.857-2.393-2.365-2.995-1.537-.612-2.716-.047-3.877.508L4.755,19.3c.6-1.165,1.155-2.271.528-3.729S3.45,13.714,2.167,13.3V11.7c1.284-.415,2.488-.824,3.115-2.275S5.355,6.866,4.753,5.7L5.927,4.57c1.172.56,2.342,1.122,3.878.508,1.508-.6,1.934-1.76,2.365-2.995h1.662c.431,1.234.858,2.393,2.366,2.995,1.537.612,2.715.047,3.877-.508L21.25,5.7c-.6,1.168-1.154,2.278-.529,3.729s1.83,1.858,3.115,2.274v1.6c-1.287.415-2.494.824-3.117,2.274ZM13,9.375A3.193,3.193,0,0,1,16.25,12.5a3.252,3.252,0,0,1-6.5,0A3.193,3.193,0,0,1,13,9.375Zm0-2.083A5.315,5.315,0,0,0,7.583,12.5,5.315,5.315,0,0,0,13,17.708,5.315,5.315,0,0,0,18.417,12.5,5.315,5.315,0,0,0,13,7.292Z" transform="translate(5 0)" fill="url(#a)"/><text transform="translate(0 37)" fill="#aeaeae" font-size="12" font-family="Montserrat-Bold, Montserrat" font-weight="700"><tspan x="0" y="0">SOAP</tspan></text></svg>