<svg xmlns="http://www.w3.org/2000/svg" xmlns:xlink="http://www.w3.org/1999/xlink" width="26" height="40" viewBox="0 0 26 40"><defs><linearGradient id="a" x1="0.5" x2="0.5" y2="1" gradientUnits="objectBoundingBox"><stop offset="0" stop-color="#e2e2e2"/><stop offset="1" stop-color="#929292"/></linearGradient></defs><path d="M12.425,0C8.024,0,2,1.043,2,4.543V20.456C2,23.958,8.468,25,12.425,25c3.941,0,10.408-1.043,10.408-4.543V4.543C22.833,1.042,16.62,0,12.425,0Zm0,2.083c3.79,0,8.325.947,8.325,2.459C20.75,6.19,15.433,7,12.425,7,8.871,7,4.083,6.059,4.083,4.543c0-1.65,5.012-2.459,8.342-2.459Zm8.325,18.11c0,1.824-5.317,2.723-8.325,2.723-3.554,0-8.342-1.044-8.342-2.723V18.069c2.205,1.4,5.385,1.854,8.342,1.854s6.121-.456,8.325-1.854v2.125Zm0-5.076c0,1.823-5.317,2.723-8.325,2.723-3.554,0-8.342-1.044-8.342-2.723V12.655c2.2,1.4,5.385,1.854,8.342,1.854s6.126-.46,8.325-1.854v2.462Zm-8.325-2.693c-3.569,0-8.342-1.048-8.342-2.723V7.232c2.205,1.4,5.385,1.854,8.342,1.854s6.121-.456,8.325-1.854V9.7c0,1.826-5.345,2.722-8.325,2.722Z" transform="translate(0.089 0)" fill="url(#a)"/><text transform="translate(0 37)" fill="#aeaeae" font-size="12" font-family="Montserrat-Bold, Montserrat" font-weight="700"><tspan x="0" y="0">SQL</tspan></text></svg>