<svg xmlns="http://www.w3.org/2000/svg" width="28" height="28" viewBox="0 0 28 28"><path d="M24.167,28a3.86,3.86,0,0,1-2.709-1.122L8.68,14.1a1.738,1.738,0,0,0-1.218-.5l-.129,0a6.85,6.85,0,0,1-5.348-1.974A6.753,6.753,0,0,1,0,6.824,9.509,9.509,0,0,1,.834,3L5.278,7.444A2.89,2.89,0,0,0,6.917,6.354a2.444,2.444,0,0,0,.544-1.062L3,.828A9.461,9.461,0,0,1,6.795,0,6.793,6.793,0,0,1,13.6,7.334a1.732,1.732,0,0,0,.5,1.349L26.878,21.459A3.832,3.832,0,0,1,24.167,28ZM7.462,11.266a4.076,4.076,0,0,1,2.865,1.188L23.106,25.23a1.5,1.5,0,0,0,2.563-1.062,1.492,1.492,0,0,0-.441-1.063L12.454,10.33a4.065,4.065,0,0,1-1.177-3.171,4.484,4.484,0,0,0-1.3-3.526A4.437,4.437,0,0,0,7.93,2.466l1.738,1.74A3.912,3.912,0,0,1,8.73,7.819,4.407,4.407,0,0,1,4.2,9.669L2.466,7.931a4.463,4.463,0,0,0,4.686,3.347l.309-.012Zm16.688,12.3a.583.583,0,1,0,.583.583A.584.584,0,0,0,24.15,23.567Zm-13.207-3.9L5.4,25.25a.5.5,0,0,1-.7-.7l5.543-5.587L9.148,17.869,3.614,23.446a.5.5,0,1,1-.7-.7l5.533-5.578L7.274,15.995l-6.053,6.1L0,28l6.07-1.064,6.051-6.1-1.178-1.177Zm6.19-11.25,5.76-5.806a.5.5,0,1,1,.7.7L17.836,9.115l1.091,1.091,5.754-5.8a.5.5,0,0,1,.7.7l-5.755,5.8,1.181,1.181L28,4.844,23.156,0,15.965,7.244l1.169,1.169Z" fill="#a15def"/></svg>