<svg xmlns="http://www.w3.org/2000/svg" xmlns:xlink="http://www.w3.org/1999/xlink" width="40" height="40" viewBox="0 0 40 40"><defs><linearGradient id="a" x1="0.5" x2="0.5" y2="1" gradientUnits="objectBoundingBox"><stop offset="0" stop-color="#e2e2e2"/><stop offset="1" stop-color="#929292"/></linearGradient></defs><g transform="translate(0 0)"><path d="M0,20V40H40V0H0Zm32.235-1.593a4.973,4.973,0,0,1,2.5,1.442,6.466,6.466,0,0,1,.958,1.283c.013.05-1.727,1.217-2.78,1.872-.038.025-.192-.14-.362-.393a2.269,2.269,0,0,0-1.88-1.13c-1.213-.083-1.993.552-1.987,1.612a1.467,1.467,0,0,0,.17.75c.267.552.763.883,2.317,1.555,2.865,1.233,4.09,2.045,4.852,3.2a5.806,5.806,0,0,1,.463,4.877,5.354,5.354,0,0,1-4.425,3.167,12.2,12.2,0,0,1-3.047-.03,7.355,7.355,0,0,1-4.07-2.122A7.045,7.045,0,0,1,23.9,32.947a2.635,2.635,0,0,1,.367-.235c.18-.1.852-.49,1.487-.858l1.15-.667.242.357A5.374,5.374,0,0,0,28.667,33a3.712,3.712,0,0,0,3.892-.2,1.735,1.735,0,0,0,.222-2.217c-.31-.443-.945-.817-2.748-1.6a9.893,9.893,0,0,1-3.765-2.317,5.275,5.275,0,0,1-1.1-2,8.045,8.045,0,0,1-.07-2.552,4.873,4.873,0,0,1,4.1-3.8,10.124,10.124,0,0,1,3.035.088Zm-9.39,1.67.013,1.638H17.65V36.508H13.967V21.715h-5.2V20.108a15.985,15.985,0,0,1,.043-1.65c.02-.027,3.188-.04,7.028-.033l6.992.02Z" transform="translate(0 0)" fill="url(#a)"/></g></svg>