<svg xmlns="http://www.w3.org/2000/svg" xmlns:xlink="http://www.w3.org/1999/xlink" width="40" height="40" viewBox="0 0 40 40"><defs><linearGradient id="a" x1="0.5" x2="0.5" y2="1" gradientUnits="objectBoundingBox"><stop offset="0" stop-color="#e2e2e2"/><stop offset="1" stop-color="#929292"/></linearGradient></defs><path d="M33.333,0H6.667A6.684,6.684,0,0,0,0,6.667V33.333A6.686,6.686,0,0,0,6.667,40H33.333A6.686,6.686,0,0,0,40,33.333V6.667A6.686,6.686,0,0,0,33.333,0ZM29.688,28.092a5.2,5.2,0,0,1-1.538,2.057,7.855,7.855,0,0,1-2.678,1.367,13.192,13.192,0,0,1-3.888.508H10.863V8.69H22.2a8.076,8.076,0,0,1,5.033,1.433,5.113,5.113,0,0,1,1.9,4.35,5.175,5.175,0,0,1-.863,3.017A5.531,5.531,0,0,1,25.8,19.417v.077a5.041,5.041,0,0,1,3.25,2.025,6.848,6.848,0,0,1,1.1,3.978,6.67,6.67,0,0,1-.5,2.547l.042.045Zm-4.627-5.75a4.113,4.113,0,0,0-2.883-.93h-7.2v7.28H22.2a4.038,4.038,0,0,0,2.883-.967,3.577,3.577,0,0,0,1.033-2.733,3.421,3.421,0,0,0-1.033-2.65h-.028Zm-1-4.7a2.977,2.977,0,0,0,.983-2.407,3.031,3.031,0,0,0-.883-2.483,3.959,3.959,0,0,0-2.547-.722H14.948v6.438h6.667a3.673,3.673,0,0,0,2.44-.827Z" fill="url(#a)"/></svg>