<svg xmlns="http://www.w3.org/2000/svg" xmlns:xlink="http://www.w3.org/1999/xlink" width="40" height="40" viewBox="0 0 40 40"><defs><linearGradient id="a" x1="0.5" x2="0.5" y2="1" gradientUnits="objectBoundingBox"><stop offset="0" stop-color="#e2e2e2"/><stop offset="1" stop-color="#929292"/></linearGradient></defs><path d="M0,0H40V40H0ZM36.723,30.46c-.292-1.825-1.48-3.358-5-4.788-1.227-.575-2.59-.975-3-1.9a1.968,1.968,0,0,1-.077-1.175,1.91,1.91,0,0,1,2.525-1.1A2.711,2.711,0,0,1,32.8,23c1.723-1.127,1.723-1.127,2.925-1.875a6.879,6.879,0,0,0-.977-1.3A5.6,5.6,0,0,0,30.023,18.1l-1.175.148A5.373,5.373,0,0,0,26,19.922a5.229,5.229,0,0,0,.948,7.452c2.275,1.7,5.6,2.073,6.027,3.675.4,1.95-1.45,2.575-3.277,2.35a4.388,4.388,0,0,1-2.925-2.227l-3.05,1.752a6.74,6.74,0,0,0,1.35,1.848c2.9,2.927,10.15,2.777,11.452-1.673a5.641,5.641,0,0,0,.123-2.75l.077.112ZM21.752,18.385H18c0,3.23-.015,6.44-.015,9.675,0,2.053.1,3.938-.23,4.518-.55,1.148-1.967,1-2.61.8a3.216,3.216,0,0,1-1.383-1.425,1.43,1.43,0,0,0-.212-.327L10.513,33.5A5.9,5.9,0,0,0,12.72,36.03a7.335,7.335,0,0,0,5.345.675,4.681,4.681,0,0,0,3.018-2.352c.85-1.55.67-3.45.662-5.577.02-3.423,0-6.848,0-10.3l.007-.093Z" fill="url(#a)"/></svg>