<svg xmlns="http://www.w3.org/2000/svg" xmlns:xlink="http://www.w3.org/1999/xlink" width="40" height="34.631" viewBox="0 0 40 34.631"><defs><linearGradient id="a" x1="0.5" x2="0.5" y2="1" gradientUnits="objectBoundingBox"><stop offset="0" stop-color="#e2e2e2"/><stop offset="1" stop-color="#929292"/></linearGradient></defs><path d="M2.558,8.811c-3.543,4.575-3.1,10.526-.4,15.384.062.118.13.231.2.344a2.34,2.34,0,0,0,.128.223,1.238,1.238,0,0,0,.078.125c.043.078.09.153.135.228l.262.4c.048.073.1.146.15.219.092.141.2.281.3.421.043.059.083.117.132.176q.243.343.517.666c.13.16.26.316.4.472.045.057.1.114.142.171l.369.4c.045.046.09.1.139.149.164.177.337.35.511.524,0,0,.005.006.008.01a4.965,4.965,0,0,0,.708.66c.133.123.267.246.409.366l.169.146c.185.156.37.312.566.462,0,0,.005,0,.008,0l.1.075c.17.133.342.267.517.39l.209.157c.142.1.289.2.434.3l.227.156c.155.1.32.208.479.31.058.038.117.075.177.11l.048.035.469.278.2.12c.245.141.489.275.731.407.07.032.14.066.205.1.18.093.367.188.549.275.1.051.2.095.307.141.125.063.255.125.389.188a.576.576,0,0,1,.093.034c.055.023.107.047.16.071.2.09.409.175.626.261.04.015.083.03.127.051.24.095.481.185.729.273.057.015.117.041.175.06.225.076.457.154.686.228l.083.027c.255.078.507.153.766.225.06.015.122.035.185.049.265.072.522.158.789.2,17.121,2.805,22.1-9.253,22.1-9.253-4.18,4.893-11.6,6.183-18.623,4.747-.26-.054-.521-.129-.783-.2q-.476-.126-.946-.271l-.1-.036c-.227-.069-.446-.146-.667-.222q-.091-.034-.184-.062c-.245-.088-.484-.18-.721-.274-.052-.015-.1-.036-.147-.054q-.3-.125-.6-.255c-.062-.024-.117-.049-.177-.078-.157-.066-.314-.141-.467-.213q-.158-.068-.312-.144c-.189-.09-.377-.187-.566-.281-.057-.036-.122-.066-.187-.1q-.369-.2-.731-.4-.1-.056-.2-.118-.266-.147-.521-.309c-.058-.035-.112-.072-.172-.11q-.249-.155-.491-.318c-.07-.051-.145-.1-.22-.15-.147-.1-.3-.2-.442-.312l-.2-.141q-.283-.206-.557-.421a.425.425,0,0,0-.062-.045l-.579-.474-.167-.141c-.137-.125-.277-.244-.417-.368l-.162-.15q-.264-.237-.516-.485L9.1,24.225c-.177-.174-.349-.351-.522-.531-.045-.046-.087-.1-.133-.146l-.377-.416q-.289-.333-.567-.672c-3.9-4.782-5.307-11.382-2.188-16.8m8.239-.708a10.1,10.1,0,0,0-.424,11.248,13.441,13.441,0,0,0,1.13,1.7,8.174,8.174,0,0,0,1.322,1.479c.179.183.372.36.574.538l.15.135q.285.248.584.487l.025.02q.338.265.691.513c.057.035.105.075.16.11.234.162.469.318.713.472l.025.014c.1.067.214.129.33.195.047.027.1.063.15.09.177.1.35.2.529.3.028.01.053.024.08.035.15.083.314.162.471.236.055.03.108.052.165.081.112.049.222.1.329.153l.053.021c.225.1.456.192.681.285.057.02.105.036.154.057.185.072.374.141.559.205.083.025.162.056.24.078.17.057.349.11.517.162l.234.067a6.144,6.144,0,0,0,.748.194c13.216,1.969,16.277-7.181,16.277-7.181-2.755,3.564-8.087,5.262-13.769,3.936q-.377-.088-.748-.195c-.08-.02-.15-.042-.227-.063-.174-.054-.352-.107-.521-.163l-.24-.081c-.187-.067-.377-.131-.559-.2-.057-.022-.108-.038-.152-.06-.234-.094-.469-.187-.7-.288l-.344-.16-.2-.09c-.154-.072-.3-.147-.442-.225a1.075,1.075,0,0,1-.1-.051c-.177-.1-.36-.2-.529-.3-.057-.028-.108-.063-.162-.093l-.347-.2c-.24-.15-.476-.312-.713-.468-.053-.044-.105-.08-.157-.118a14.377,14.377,0,0,1-5.4-6.912A9.782,9.782,0,0,1,15.639,2.3m7.154-.22a6.331,6.331,0,0,0-.617,6.683,10.127,10.127,0,0,0,6.014,5.047c.108.038.214.069.325.1l.147.04c.154.043.309.094.467.126,7.3,1.266,9.278-3.371,9.81-4.052-1.739,2.244-4.654,2.783-8.23,2a8.765,8.765,0,0,1-.861-.24q-.526-.166-1.03-.381a11.168,11.168,0,0,1-1.8-.99c-3.2-2.181-5.188-6.345-3.1-9.737" transform="translate(-0.016 -0.68)" fill="url(#a)"/></svg>