<svg xmlns="http://www.w3.org/2000/svg" xmlns:xlink="http://www.w3.org/1999/xlink" width="40" height="23.622" viewBox="0 0 40 23.622"><defs><linearGradient id="a" x1="0.5" x2="0.5" y2="1" gradientUnits="objectBoundingBox"><stop offset="0" stop-color="#e2e2e2"/><stop offset="1" stop-color="#929292"/></linearGradient></defs><path d="M20,7.345c10.713,0,18.95,5.067,18.95,10.632S30.706,28.609,20,28.609,1.05,23.542,1.05,17.977,9.294,7.345,20,7.345m0-1.179c-11.044,0-20,5.284-20,11.811S8.956,29.788,20,29.788,40,24.5,40,17.977,31.044,6.166,20,6.166ZM13.638,17.03c-.494,2.842-2.238,2.547-4.381,2.547l.856-4.955C12.488,14.623,14.1,14.335,13.638,17.03ZM6.088,24.6H8.381l.544-3.144c2.569,0,4.162.211,5.637-1.34,1.631-1.684,2.056-4.681.894-6.183a3.444,3.444,0,0,0-2.906-1.172H8.131ZM17.694,9.605h2.281l-.544,3.144c1.969,0,3.794-.161,4.675.751.925.954.481,2.176-.519,7.937H21.275c.962-5.572,1.144-6.035.794-6.456s-1.106-.323-2.963-.323l-1.175,6.779H15.65L17.694,9.605ZM31.563,17.03c-.5,2.884-2.294,2.547-4.381,2.547l.856-4.955C30.425,14.623,32.025,14.335,31.563,17.03ZM24.013,24.6h2.3l.544-3.144c2.7,0,4.194.175,5.638-1.34,1.631-1.684,2.056-4.681.894-6.183a3.444,3.444,0,0,0-2.906-1.172H26.063L24.013,24.6Z" transform="translate(0 -6.166)" fill="url(#a)"/></svg>