<svg xmlns="http://www.w3.org/2000/svg" xmlns:xlink="http://www.w3.org/1999/xlink" width="40" height="35.59" viewBox="0 0 40 35.59"><defs><linearGradient id="a" x1="0.5" x2="0.5" y2="1" gradientUnits="objectBoundingBox"><stop offset="0" stop-color="#e2e2e2"/><stop offset="1" stop-color="#929292"/></linearGradient></defs><path d="M20,16.215a3.565,3.565,0,1,0,3.565,3.565A3.565,3.565,0,0,0,20,16.215ZM10.013,26.872l-.787-.2C3.363,25.19,0,22.675,0,19.773s3.363-5.417,9.227-6.9l.787-.2.222.78a39.218,39.218,0,0,0,2.272,5.963l.168.355-.168.355a38.845,38.845,0,0,0-2.272,5.963ZM8.862,14.7C4.4,15.948,1.67,17.863,1.67,19.773S4.405,23.6,8.862,24.85a41.585,41.585,0,0,1,1.97-5.077A41.254,41.254,0,0,1,8.862,14.7ZM29.987,26.872l-.222-.782a38.929,38.929,0,0,0-2.273-5.962l-.168-.355.168-.355a39.035,39.035,0,0,0,2.273-5.963l.222-.78.788.2c5.862,1.482,9.225,4,9.225,6.9s-3.363,5.417-9.225,6.9Zm-.818-7.1a41.212,41.212,0,0,1,1.97,5.077C35.6,23.6,38.33,21.681,38.33,19.773S35.6,15.95,31.138,14.7a41.314,41.314,0,0,1-1.97,5.077ZM8.85,14.688l-.222-.778C6.98,8.1,7.48,3.936,10,2.483c2.472-1.427,6.44.258,10.6,4.527l.567.582-.567.582a39.254,39.254,0,0,0-4.037,4.945l-.225.322-.392.033A39.428,39.428,0,0,0,9.637,14.49Zm3.16-11.05a2.325,2.325,0,0,0-1.175.288c-1.657.955-1.95,4.275-.808,8.755a41.869,41.869,0,0,1,5.388-.835,41.411,41.411,0,0,1,3.42-4.24c-2.6-2.532-5.062-3.968-6.825-3.968ZM27.992,37.575h0c-2.375,0-5.425-1.788-8.59-5.038l-.567-.582.567-.582a39.217,39.217,0,0,0,4.035-4.947l.225-.322.39-.033a39.383,39.383,0,0,0,6.312-1.015l.787-.2.223.78C33.018,31.445,32.52,35.61,30,37.062a3.967,3.967,0,0,1-2.008.513ZM21.165,31.94c2.6,2.532,5.062,3.968,6.825,3.968h0a2.319,2.319,0,0,0,1.173-.288c1.657-.955,1.952-4.277.808-8.757a41.7,41.7,0,0,1-5.39.835,41.124,41.124,0,0,1-3.418,4.242ZM31.15,14.688l-.787-.2a39.131,39.131,0,0,0-6.312-1.017l-.39-.033-.225-.322A39.024,39.024,0,0,0,19.4,8.173l-.567-.582.567-.582C23.558,2.743,27.525,1.058,30,2.483c2.52,1.453,3.02,5.617,1.373,11.425Zm-6.567-2.842a41.563,41.563,0,0,1,5.39.835c1.143-4.48.848-7.8-.808-8.755s-4.742.507-8,3.68a41.416,41.416,0,0,1,3.418,4.24ZM12.01,37.575A3.967,3.967,0,0,1,10,37.062C7.48,35.61,6.98,31.447,8.628,25.638l.22-.78.787.2a39.339,39.339,0,0,0,6.308,1.015l.392.033.223.322A39.328,39.328,0,0,0,20.6,31.373l.567.582-.567.582c-3.163,3.25-6.213,5.038-8.585,5.038ZM10.027,26.863c-1.143,4.48-.848,7.8.808,8.757,1.645.938,4.738-.508,8-3.68a41.664,41.664,0,0,1-3.42-4.242,41.625,41.625,0,0,1-5.388-.835ZM20,27.91c-1.372,0-2.782-.06-4.193-.177l-.392-.033-.225-.322q-1.2-1.721-2.25-3.537T11,20.128l-.167-.355L11,19.418q.894-1.9,1.943-3.713c.69-1.193,1.448-2.383,2.25-3.537l.225-.322.392-.033a49.64,49.64,0,0,1,8.388,0l.39.033.223.322a50.011,50.011,0,0,1,4.2,7.25l.168.355L29,20.128a49.335,49.335,0,0,1-4.195,7.25l-.223.322-.39.033C22.783,27.85,21.372,27.91,20,27.91ZM16.338,26.1a48.407,48.407,0,0,0,7.325,0,48.345,48.345,0,0,0,3.66-6.33,47.643,47.643,0,0,0-3.662-6.33,48.384,48.384,0,0,0-7.323,0,47.463,47.463,0,0,0-3.662,6.33,48.525,48.525,0,0,0,3.662,6.33Z" transform="translate(0 -1.986)" fill="url(#a)"/></svg>