<svg xmlns="http://www.w3.org/2000/svg" xmlns:xlink="http://www.w3.org/1999/xlink" width="40" height="37.93" viewBox="0 0 40 37.93"><defs><linearGradient id="a" x1="0.5" x2="0.5" y2="1" gradientUnits="objectBoundingBox"><stop offset="0" stop-color="#e2e2e2"/><stop offset="1" stop-color="#929292"/></linearGradient></defs><path d="M27.724,27.4a2.774,2.774,0,0,0,2.5-2.923,2.878,2.878,0,0,0-2.847-2.747h-.1a2.85,2.85,0,0,0-2.747,2.948A3.042,3.042,0,0,0,25.35,26.6a18.385,18.385,0,0,1-8.341,7.991,13.676,13.676,0,0,1-8.241,1.548,7.184,7.184,0,0,1-5.194-3,7.446,7.446,0,0,1-.425-7.89,11.776,11.776,0,0,1,3.5-4.071,16.6,16.6,0,0,1-.7-2.57c-7.394,5.295-6.642,12.534-4.4,15.956,1.673,2.5,5.1,4.093,8.841,4.093a12.973,12.973,0,0,0,3.072-.323A19.539,19.539,0,0,0,27.7,27.454Zm8.914-6.243A20.612,20.612,0,0,0,20.58,14.118h-.85a2.687,2.687,0,0,0-2.5-1.5H17.16a2.8,2.8,0,0,0-2.745,2.922,2.877,2.877,0,0,0,2.847,2.747h.123a2.818,2.818,0,0,0,2.5-1.748h.925a19.342,19.342,0,0,1,10.814,3.32,13.689,13.689,0,0,1,5.394,6.493,6.894,6.894,0,0,1-.075,5.995,7.424,7.424,0,0,1-6.992,4.195A13.038,13.038,0,0,1,25,35.468c-.6.5-1.6,1.322-2.324,1.822a16.036,16.036,0,0,0,6.567,1.572,11.15,11.15,0,0,0,9.864-5.393c1.5-3,1.373-8.04-2.449-12.359ZM10.817,28.3a2.874,2.874,0,0,0,2.847,2.747h.1a2.847,2.847,0,0,0-.075-5.691h-.1a1.074,1.074,0,0,0-.375.048,18.649,18.649,0,0,1-2.62-11.285,13.554,13.554,0,0,1,3-7.891A8.877,8.877,0,0,1,19.831,3.38c5.394-.1,7.642,6.618,7.816,9.29l2.5.748C29.569,5.228,24.477.931,19.606.931c-4.57,0-8.789,3.322-10.489,8.191-2.322,6.493-.8,12.734,2.048,17.729a2.209,2.209,0,0,0-.348,1.447Z" transform="translate(0 -0.931)" fill="url(#a)"/></svg>