<svg xmlns="http://www.w3.org/2000/svg" xmlns:xlink="http://www.w3.org/1999/xlink" width="36.22" height="40" viewBox="0 0 36.22 40"><defs><linearGradient id="a" x1="0.5" x2="0.5" y2="1" gradientUnits="objectBoundingBox"><stop offset="0" stop-color="#e2e2e2"/><stop offset="1" stop-color="#929292"/></linearGradient></defs><path d="M38.606,33.4l-16.282,9.17V35.43l10.144-5.556L38.606,33.4Zm1.114-1V13.219l-5.958,3.424V28.97Zm-35.106,1,16.282,9.17V35.43L10.75,29.873,4.613,33.4ZM3.5,32.4V13.219l5.958,3.424V28.97L3.5,32.4Zm.7-20.419,16.7-9.407V9.478L10.2,15.336l-.082.047L4.2,11.979Zm34.826,0-16.7-9.407V9.478l10.7,5.859.082.047,5.919-3.4ZM20.9,33.8,10.887,28.326V17.469l10.008,5.754V33.8Zm1.429,0,10.008-5.479V17.469L22.324,23.223V33.8ZM11.565,16.213l10.047-5.5,10.047,5.5L21.611,21.99Z" transform="translate(-3.5 -2.572)" fill="url(#a)"/></svg>