<svg xmlns="http://www.w3.org/2000/svg" xmlns:xlink="http://www.w3.org/1999/xlink" width="40" height="40" viewBox="0 0 40 40"><defs><linearGradient id="a" x1="0.5" x2="0.5" y2="1" gradientUnits="objectBoundingBox"><stop offset="0" stop-color="#e2e2e2"/><stop offset="1" stop-color="#929292"/></linearGradient></defs><path d="M35.782,11.375A18,18,0,0,1,29.04,35.542l5.492-15.878a17,17,0,0,0,1.367-6.44,14.113,14.113,0,0,0-.117-1.85m-13.3.175c1.078-.05,2.053-.175,2.053-.175a.752.752,0,0,0-.112-1.5s-2.925.225-4.8.225c-1.773,0-4.75-.25-4.75-.25a.74.74,0,0,0-.125,1.475s.9.1,1.875.15l2.8,7.675-3.95,11.8L8.923,11.5c1.082-.05,2.057-.167,2.057-.167a.749.749,0,0,0-.108-1.493s-2.91.23-4.79.23c-.333,0-.73-.013-1.15-.025A18.237,18.237,0,0,1,20,2.025,17.9,17.9,0,0,1,32.143,6.747c-.077-.005-.152-.015-.235-.015a3.113,3.113,0,0,0-3.02,3.19c0,1.483.855,2.738,1.767,4.218A9.477,9.477,0,0,1,32.138,19.1a21.618,21.618,0,0,1-1.368,5.8l-1.792,5.975-6.5-19.35ZM20,37.973a17.994,17.994,0,0,1-5.08-.728l5.4-15.677L25.84,36.713a2.681,2.681,0,0,0,.13.248A18,18,0,0,1,20,37.977M2.018,20a17.888,17.888,0,0,1,1.558-7.317l8.573,23.5A17.99,17.99,0,0,1,2.018,20M20,0A20,20,0,1,0,40,20,20.027,20.027,0,0,0,20,0" fill="url(#a)"/></svg>