<svg xmlns="http://www.w3.org/2000/svg" xmlns:xlink="http://www.w3.org/1999/xlink" width="40" height="40" viewBox="0 0 40 40"><defs><linearGradient id="a" x1="0.5" x2="0.5" y2="1" gradientUnits="objectBoundingBox"><stop offset="0" stop-color="#e2e2e2"/><stop offset="1" stop-color="#929292"/></linearGradient></defs><path d="M1922.169-1179.845c7.337-2.671,12.414-2.676,19.763,0,7.555,2.714,10.168,8.348,10.167,11.406.065,1.715-3.179,2.043-4.9,2.25-6.545.787-27.25,1.092-33.2-.533-.409-.112-1.9-.47-1.9-1.716C1912.213-1171.376,1914.679-1177.119,1922.169-1179.845Zm.624,1.89c-6.369,2.318-8.451,6.906-8.752,9.172,3.94,1.667,32.269,1.664,36.133,0-.235-2.315-2.358-6.838-8.858-9.172C1934.374-1180.481,1929.737-1180.483,1922.793-1177.955Z" transform="translate(-1912.101 1205.551)" fill="url(#a)"/><path d="M0,10.141C0,4.5,3.792,0,8.466,0c4.585,0,8.377,4.5,8.377,10.141,0,5.555-3.792,10.053-8.377,10.053C3.792,20.194,0,15.7,0,10.141ZM7.752,1.81c-3.133.413-5.988,3.717-5.988,8.331,0,4.54,2.869,7.854,6.026,8.247,3.547.442,7.289-2.986,7.289-8.247C15.079,4.723,11.286,1.345,7.752,1.81Z" transform="translate(11.952)" fill="url(#a)"/></svg>