<svg xmlns="http://www.w3.org/2000/svg" xmlns:xlink="http://www.w3.org/1999/xlink" width="40.022" height="40.022" viewBox="0 0 40.022 40.022"><defs><linearGradient id="a" x1="0.5" x2="0.5" y2="1" gradientUnits="objectBoundingBox"><stop offset="0" stop-color="#e2e2e2"/><stop offset="1" stop-color="#929292"/></linearGradient></defs><path d="M5.7,11.3C-1.9,11.3-1.8,0,5.7,0a5.613,5.613,0,0,1,5.6,5.7A5.591,5.591,0,0,1,5.7,11.3ZM3.387,2.7A3.935,3.935,0,0,0,3.3,8.55a3.863,3.863,0,0,0,4.953-.3A3.7,3.7,0,0,0,7.059,2.264,3.937,3.937,0,0,0,3.387,2.7Z" transform="translate(14.354 14.354)" fill="url(#a)"/><path d="M-2603.2,1378c4.7,0,4.5-.1,4.7.3l2.4,5.5a12.189,12.189,0,0,1,1.7.7c5.8-2.3,5.8-2.4,6-2.2,3.3,3.3,3.3,3.1,3.1,3.5l-2.2,5.6a12.186,12.186,0,0,1,.7,1.7c5.7,2.5,5.8,2.5,5.8,2.7,0,4.7.1,4.5-.3,4.7l-5.5,2.4a12.186,12.186,0,0,1-.7,1.7c2.3,5.8,2.4,5.8,2.2,6-3.4,3.4-3.1,3.1-3.3,3.1s.2.2-5.8-2.2a12.189,12.189,0,0,1-1.7.7l-2.4,5.5c-.2.4.2.3-4.7.3-.2,0-.2-.1-2.7-5.8a12.189,12.189,0,0,1-1.7-.7c-5.8,2.3-5.8,2.4-6,2.2-3.3-3.3-3.3-3.1-3.1-3.5l2.2-5.6a12.186,12.186,0,0,1-.7-1.7c-5.7-2.5-5.8-2.5-5.8-2.7,0-4.7-.1-4.5.3-4.7l5.5-2.4a12.186,12.186,0,0,1,.7-1.7c-2.3-5.8-2.4-5.8-2.2-6,3.3-3.3,3.1-3.3,3.5-3.1l5.6,2.2a12.189,12.189,0,0,1,1.7-.7C-2603.4,1378.1-2603.4,1378-2603.2,1378Zm-4.3,8.687-5.518-2.168-1.478,1.5,2.187,5.472a14.864,14.864,0,0,0-1.273,3.083l-5.427,2.368.009,2.105,5.419,2.375a14.818,14.818,0,0,0,1.271,3.077l-2.168,5.518,1.5,1.478,5.471-2.187a14.862,14.862,0,0,0,3.081,1.272l2.375,5.419,2.105.009,2.368-5.427a14.834,14.834,0,0,0,3.086-1.275l5.485,2.162,1.5-1.5-2.186-5.469a14.864,14.864,0,0,0,1.273-3.083l5.427-2.368-.009-2.105-5.419-2.375a14.818,14.818,0,0,0-1.271-3.077l2.168-5.518-1.5-1.478-5.471,2.187a14.866,14.866,0,0,0-3.083-1.273l-2.368-5.427-2.105.009-2.375,5.419A14.811,14.811,0,0,0-2607.5,1386.687Z" transform="translate(2621.011 -1377.989)" fill="url(#a)"/></svg>