<svg xmlns="http://www.w3.org/2000/svg" width="40" height="28.339" viewBox="0 0 40 28.339"><g style="isolation:isolate"><path d="M38.048-1A.923.923,0,0,1,39,0a.923.923,0,0,1-.952,1H-.048A.923.923,0,0,1-1,0,.923.923,0,0,1-.048-1Z" transform="translate(1 27.339)" fill="#e2e2e2"/><path d="M38.048-1A.923.923,0,0,1,39,0a.923.923,0,0,1-.952,1H-.048A.923.923,0,0,1-1,0,.923.923,0,0,1-.048-1Z" transform="translate(1 14)" fill="#e2e2e2"/><path d="M38.048-1A.923.923,0,0,1,39,0a.923.923,0,0,1-.952,1H-.048A.923.923,0,0,1-1,0,.923.923,0,0,1-.048-1Z" transform="translate(1 1)" fill="#e2e2e2"/></g></svg>