<svg xmlns="http://www.w3.org/2000/svg" xmlns:xlink="http://www.w3.org/1999/xlink" width="288" height="288" viewBox="0 0 288 288"><defs><clipPath id="b"><rect width="288" height="288"/></clipPath></defs><g id="a" clip-path="url(#b)"><g transform="translate(16 16)" style="isolation:isolate"><path d="M32,0A32,32,0,1,1,0,32,32,32,0,0,1,32,0Z" transform="translate(96 96)" fill="none"/><path d="M-2507,1634c-1.1,0-2-2-2-2l-15.305-35.22a95.417,95.417,0,0,1-10.744-4.455l-35.732,14.084a5.744,5.744,0,0,1-1.748.347,1.5,1.5,0,0,1-1.081-.347l-19.8-19.8c-.781-.781,0-2.829,0-2.829l14.084-35.732a95.451,95.451,0,0,1-4.455-10.744L-2619,1522s-2-.9-2-2v-28c0-1.1,2-2,2-2l35.22-15.305a95.286,95.286,0,0,1,4.455-10.745l-14.084-35.732s-.78-2.047,0-2.829l19.8-19.8c.781-.781,2.829,0,2.829,0l35.732,14.085a95.408,95.408,0,0,1,10.743-4.455L-2509,1380s.9-2,2-2h28c1.1,0,2,2,2,2l15.306,35.221a95.432,95.432,0,0,1,10.742,4.454l35.733-14.084s2.048-.781,2.829,0l19.8,19.8c.781.781,0,2.829,0,2.829l-14.084,35.733a95.434,95.434,0,0,1,4.455,10.744L-2367,1490s2,.9,2,2v28c0,1.1-2,2-2,2l-35.22,15.305a95.4,95.4,0,0,1-4.455,10.744l14.084,35.732s.781,2.047,0,2.829l-19.8,19.8a1.5,1.5,0,0,1-1.081.347,5.744,5.744,0,0,1-1.748-.347l-35.732-14.084a95.436,95.436,0,0,1-10.744,4.455L-2477,1632s-.9,2-2,2Z" transform="translate(2621 -1378)" fill="none"/></g></g></svg>