<svg xmlns="http://www.w3.org/2000/svg" width="63.381" height="63.381" viewBox="0 0 63.381 63.381"><defs><style>.a{fill:none;}.b{fill:#e2e2e2;}</style></defs><rect class="a" width="58.118" height="50.854" transform="translate(2.906 6.054)"/><path class="b" d="M54,54.011H44.613V39.3c0-3.507-.071-8.02-4.891-8.02-4.894,0-5.641,3.816-5.641,7.762V54.011H24.695V23.768h9.016V27.89h.121A9.891,9.891,0,0,1,42.732,23C52.242,23,54,29.264,54,37.411v16.6ZM14.094,19.63a5.451,5.451,0,1,1,5.451-5.453A5.445,5.445,0,0,1,14.094,19.63ZM18.8,54.011H9.388V23.768H18.8ZM58.694,0H4.677A4.621,4.621,0,0,0,0,4.566V58.815a4.619,4.619,0,0,0,4.677,4.566H58.686a4.637,4.637,0,0,0,4.7-4.566V4.566A4.639,4.639,0,0,0,58.686,0Z"/></svg>