<svg xmlns="http://www.w3.org/2000/svg" xmlns:xlink="http://www.w3.org/1999/xlink" width="288" height="288" viewBox="0 0 288 288"><defs><clipPath id="b"><rect width="288" height="288"/></clipPath></defs><g id="a" clip-path="url(#b)"><g transform="translate(24 24)"><g transform="translate(66.209 0)" style="isolation:isolate"><path d="M112.081,89.55V40.087a12.449,12.449,0,0,0-5.977-10.7L64.267,4.66a11.609,11.609,0,0,0-11.953,0L10.477,29.391A12.449,12.449,0,0,0,4.5,40.087V89.55a12.449,12.449,0,0,0,5.977,10.7l41.837,24.731a11.609,11.609,0,0,0,11.953,0L106.1,100.246a12.449,12.449,0,0,0,5.977-10.7Z" transform="translate(-4.5 -3.003)" fill="none"/><path d="M4.905,10.44,57.082,41.663,109.258,10.44" transform="translate(-3.291 20.214)" fill="none"/><path d="M18,80.323V18" transform="translate(35.79 43.815)" fill="none"/></g><g transform="translate(0 115.862)" style="isolation:isolate"><path d="M112.081,89.55V40.087a12.449,12.449,0,0,0-5.977-10.7L64.267,4.66a11.609,11.609,0,0,0-11.953,0L10.477,29.391A12.449,12.449,0,0,0,4.5,40.087V89.55a12.449,12.449,0,0,0,5.977,10.7l41.837,24.731a11.609,11.609,0,0,0,11.953,0L106.1,100.246a12.449,12.449,0,0,0,5.977-10.7Z" transform="translate(-4.5 -3.003)" fill="none"/><path d="M4.905,10.44,57.082,41.663,109.258,10.44" transform="translate(-3.291 20.214)" fill="none"/><path d="M18,80.323V18" transform="translate(35.79 43.815)" fill="none"/></g><g transform="translate(132.419 115.862)" style="isolation:isolate"><path d="M112.081,89.55V40.087a12.449,12.449,0,0,0-5.977-10.7L64.267,4.66a11.609,11.609,0,0,0-11.953,0L10.477,29.391A12.449,12.449,0,0,0,4.5,40.087V89.55a12.449,12.449,0,0,0,5.977,10.7l41.837,24.731a11.609,11.609,0,0,0,11.953,0L106.1,100.246a12.449,12.449,0,0,0,5.977-10.7Z" transform="translate(-4.5 -3.003)" fill="none"/><path d="M4.905,10.44,57.082,41.663,109.258,10.44" transform="translate(-3.291 20.214)" fill="none"/><path d="M18,80.323V18" transform="translate(35.79 43.815)" fill="none"/></g></g></g></svg>