<svg xmlns="http://www.w3.org/2000/svg" xmlns:xlink="http://www.w3.org/1999/xlink" width="25" height="28" viewBox="0 0 25 28"><defs><linearGradient id="a" x1="0.5" x2="0.5" y2="1" gradientUnits="objectBoundingBox"><stop offset="0" stop-color="#e2e2e2"/><stop offset="1" stop-color="#929292"/></linearGradient></defs><path d="M17.8,0H1A1,1,0,0,0,0,1V20a1,1,0,0,0,1,1H6.2v6a1,1,0,0,0,1,1H24a1,1,0,0,0,1-1V8a1,1,0,0,0-1-1H18.8V1A1,1,0,0,0,17.8,0ZM2.1,17.7V3.3a1,1,0,0,1,1-1H15.7a1,1,0,0,1,1,1V7H7.2a1,1,0,0,0-1,1V18.7H3.1A1,1,0,0,1,2.1,17.7Zm6.2,7V10.3a1,1,0,0,1,1-1H21.9a1,1,0,0,1,1,1V24.7a1,1,0,0,1-1,1H9.3A1,1,0,0,1,8.3,24.7Z" fill="url(#a)"/></svg>