<svg xmlns="http://www.w3.org/2000/svg" xmlns:xlink="http://www.w3.org/1999/xlink" width="28" height="21" viewBox="0 0 28 21"><defs><linearGradient id="a" x1="0.5" x2="0.5" y2="1" gradientUnits="objectBoundingBox"><stop offset="0" stop-color="#e2e2e2"/><stop offset="1" stop-color="#929292"/></linearGradient></defs><g style="isolation:isolate"><path d="M1.283,24H26.815A1.155,1.155,0,0,0,28,22.857V4.225A1.145,1.145,0,0,0,26.815,3H1.283A1.211,1.211,0,0,0,0,4.225V22.857C0,24.037,1.283,24,1.283,24ZM2.3,18.9V7.9l5.4,4.4C7.7,12.4,8.4,11.5,2.3,18.9ZM25.1,5.3,14,14.3,2.9,5.3H25.1Zm-6.6,8.4,6.5,8H3.1l6.4-8L14,17.3Zm7.2-5.8V18.8l-5.4-6.6h0Z" transform="translate(0 -3)" fill="url(#a)"/></g></svg>