<svg xmlns="http://www.w3.org/2000/svg" xmlns:xlink="http://www.w3.org/1999/xlink" width="40" height="40" viewBox="0 0 40 40"><defs><linearGradient id="b" x1="0.308" y1="0.073" x2="0.835" y2="0.947" gradientUnits="objectBoundingBox"><stop offset="0" stop-color="#0082d8"/><stop offset="1" stop-color="#004b7d"/></linearGradient></defs><path d="M.5,34.574C9.19,25.98,8.591,26.18,9.69,26.18h1.2C2.8,15.788,9.99,0,23.675,0A16.267,16.267,0,0,1,39.958,16.188c0,13.69-15.784,20.984-26.273,12.89,0,1.2.2,1.9-.5,2.6C5.594,39.27,4.5,41.169,2.8,39.37,1.2,37.771-1.1,36.272.5,34.574ZM23.675,26.18c13.286,0,13.286-19.985,0-19.985C10.489,6.2,10.489,26.18,23.675,26.18Z" transform="translate(0.042)" fill="url(#b)"/></svg>