<svg xmlns="http://www.w3.org/2000/svg" xmlns:xlink="http://www.w3.org/1999/xlink" width="288" height="288" viewBox="0 0 288 288"><defs><clipPath id="b"><rect width="288" height="288"/></clipPath></defs><g id="a" clip-path="url(#b)"><g transform="translate(24 24.557)" style="isolation:isolate"><path d="M197.773,238.443h-158V118.049H0l1.746-1.736L118.073.689,118.767,0l.7.682L238.053,116.307l1.787,1.742H197.773V238.442Zm-102.5-77.018a2,2,0,0,0-2,2v72.968a2,2,0,0,0,2,2h47a2,2,0,0,0,2-2V163.426a2,2,0,0,0-2-2Z" transform="translate(0 0)" fill="rgba(255,255,255,0)"/></g></g></svg>