<svg xmlns="http://www.w3.org/2000/svg" xmlns:xlink="http://www.w3.org/1999/xlink" width="40" height="40" viewBox="0 0 40 40"><defs><linearGradient id="a" x1="0.5" x2="0.5" y2="1" gradientUnits="objectBoundingBox"><stop offset="0" stop-color="#e2e2e2"/><stop offset="1" stop-color="#929292"/></linearGradient></defs><path d="M54.115-.378a3.084,3.084,0,0,1,2.255,0c.733.288-.694-.918,18.165,16.538a2.738,2.738,0,0,1-2.043,4.718h-2.5V36.655a2.84,2.84,0,0,1-2.916,2.753l-7.7-.066a1.9,1.9,0,0,1-1.944-1.756v-8.2H53.051v8.2a1.981,1.981,0,0,1-1.944,1.823h-7.7a2.84,2.84,0,0,1-2.917-2.753V20.876H38.331a2.739,2.739,0,0,1-2.062-4.7C54.738-1.253,53.364-.08,54.115-.378Zm.444,1.889L37.643,17.474a.913.913,0,0,0,.688,1.567H41.46a.947.947,0,0,1,.972.917v16.7a.948.948,0,0,0,.973.917h7.7V27.86a.317.317,0,0,1,.325-.308h7.621a.317.317,0,0,1,.324.308v9.712h7.7a.947.947,0,0,0,.972-.917v-16.7a.947.947,0,0,1,.972-.917h3.469a.913.913,0,0,0,.681-1.573L55.927,1.5A1.014,1.014,0,0,0,54.559,1.511Z" transform="translate(-35.411 0.593)" fill="url(#a)"/></svg>