<svg xmlns="http://www.w3.org/2000/svg" xmlns:xlink="http://www.w3.org/1999/xlink" width="40.103" height="39.797" viewBox="0 0 40.103 39.797"><defs><linearGradient id="a" x1="0.5" x2="0.5" y2="1" gradientUnits="objectBoundingBox"><stop offset="0" stop-color="#e2e2e2"/><stop offset="1" stop-color="#929292"/></linearGradient></defs><path d="M13,3.3c1.4-.8,1.8-.2,9.6,4.4,1.4.8,1.1,1.4,1.1,10.6,0,1.7-.7,1.7-8.5,6.3-1.5.9-1.8.2-9.6-4.4-1.5-.8-1.1-1.4-1.1-10.6C4.5,7.9,5.2,7.9,13,3.3Zm-6.531,11a33.225,33.225,0,0,0,.061,4.125c5.838,3.5,7.053,4.271,7.609,4.475,5.514-3.212,7.12-4.11,7.56-4.529.025-6.025.066-8.269-.077-8.93C17.487,6.982,14.663,5.253,14,5.032,9.547,7.625,6.98,9.069,6.5,9.525,6.494,10.185,6.511,10.5,6.469,14.3Z" transform="translate(-4.452 14.857)" fill="url(#a)"/><path d="M5.292,11.861a1,1,0,1,1,1.017-1.722l7.782,4.594,7.487-4.586a1,1,0,0,1,1.045,1.706l-8.513,5.214Z" transform="translate(-4.424 12.949)" fill="url(#a)"/><path d="M19,27.6a1,1,0,0,1-2,0V18a1,1,0,0,1,2,0Z" transform="translate(-8.365 10.819)" fill="url(#a)"/><path d="M13,3.3c1.4-.8,1.8-.2,9.6,4.4,1.4.8,1.1,1.4,1.1,10.6,0,1.7-.7,1.7-8.5,6.3-1.5.9-1.8.2-9.6-4.4-1.5-.8-1.1-1.4-1.1-10.6C4.5,7.9,5.2,7.9,13,3.3Zm-6.531,11a33.225,33.225,0,0,0,.061,4.125c5.838,3.5,7.053,4.271,7.609,4.475,5.514-3.212,7.12-4.11,7.56-4.529.025-6.025.066-8.269-.077-8.93C17.487,6.982,14.663,5.253,14,5.032,9.547,7.625,6.98,9.069,6.5,9.525,6.494,10.185,6.511,10.5,6.469,14.3Z" transform="translate(5.962 -3.002)" fill="url(#a)"/><path d="M5.292,11.861a1,1,0,1,1,1.017-1.722l7.782,4.594,7.487-4.586a1,1,0,0,1,1.045,1.706l-8.513,5.214Z" transform="translate(5.99 -4.91)" fill="url(#a)"/><path d="M19,27.6a1,1,0,0,1-2,0V18a1,1,0,0,1,2,0Z" transform="translate(2.048 -7.04)" fill="url(#a)"/><path d="M13,3.3c1.4-.8,1.8-.2,9.6,4.4,1.4.8,1.1,1.4,1.1,10.6,0,1.7-.7,1.7-8.5,6.3-1.5.9-1.8.2-9.6-4.4-1.5-.8-1.1-1.4-1.1-10.6C4.5,7.9,5.2,7.9,13,3.3Zm-6.531,11a33.225,33.225,0,0,0,.061,4.125c5.838,3.5,7.053,4.271,7.609,4.475,5.514-3.212,7.12-4.11,7.56-4.529.025-6.025.066-8.269-.077-8.93C17.487,6.982,14.663,5.253,14,5.032,9.547,7.625,6.98,9.069,6.5,9.525,6.494,10.185,6.511,10.5,6.469,14.3Z" transform="translate(16.376 14.857)" fill="url(#a)"/><path d="M5.292,11.861a1,1,0,1,1,1.017-1.722l7.782,4.594,7.487-4.586a1,1,0,0,1,1.045,1.706l-8.513,5.214Z" transform="translate(16.403 12.949)" fill="url(#a)"/><path d="M19,27.6a1,1,0,0,1-2,0V18a1,1,0,0,1,2,0Z" transform="translate(12.462 10.819)" fill="url(#a)"/></svg>