<svg xmlns="http://www.w3.org/2000/svg" xmlns:xlink="http://www.w3.org/1999/xlink" width="288" height="288" viewBox="0 0 288 288"><defs><clipPath id="b"><rect width="288" height="288"/></clipPath></defs><g id="a" clip-path="url(#b)"><g transform="translate(23.393 25.15)"><path d="M123.323,12.384a5,5,0,0,1,9.355,0l28.747,76.108a5,5,0,0,0,4.342,3.222l78.168,5.258a5,5,0,0,1,2.95,8.758L186.21,158.621a5,5,0,0,0-1.573,4.95l19.448,79.995a5,5,0,0,1-7.629,5.343l-65.685-43.728a5,5,0,0,0-5.542,0L59.544,248.909a5,5,0,0,1-7.629-5.343l19.448-79.995a5,5,0,0,0-1.573-4.95L9.115,105.729a5,5,0,0,1,2.95-8.758l78.168-5.258a5,5,0,0,0,4.342-3.222Z" transform="translate(-7.393 -9.15)" fill="none"/></g></g></svg>