<svg xmlns="http://www.w3.org/2000/svg" xmlns:xlink="http://www.w3.org/1999/xlink" width="40.034" height="39.966" viewBox="0 0 40.034 39.966"><defs><linearGradient id="a" x1="0.5" x2="0.5" y2="1" gradientUnits="objectBoundingBox"><stop offset="0" stop-color="#e2e2e2"/><stop offset="1" stop-color="#929292"/></linearGradient></defs><path d="M26.6,9.7a.872.872,0,0,1,1.6,0l4.7,12.6c.3.7-.2.5,13.7,1.4a.845.845,0,0,1,.5,1.5L37,34c-.5.5-.5-.3,3,14.1a.837.837,0,0,1-1.3.9L27.9,41.7c-.7-.4-.1-.5-11.9,7.3a.791.791,0,0,1-1.2-.9L18,34.8c.2-.7.5-.1-10.3-9.6a.845.845,0,0,1,.5-1.5l12.9-.8C21.9,22.8,21.5,23.3,26.6,9.7ZM23.98,22.387a4,4,0,0,1-1.673,2.243c-.634.312-.229.205-11.205.894l7.645,6.687a3.03,3.03,0,0,1,1.29,2.662c-.014.1.147-.631-2.5,10.707l7.9-5.244c1.194-.731,2.19-1.117,3.417-.392l8.491,5.729-2.39-9.8a3.343,3.343,0,0,1,.315-2.953c.211-.268-.39.281,8.418-7.4-9.579-.591-11.292-.461-12.275-1.773-.324-.432-.106.013-4.02-10.471Z" transform="translate(-7.383 -9.175)" fill="url(#a)"/></svg>